%TF.GenerationSoftware,KiCad,Pcbnew,(6.0.5)*%
%TF.CreationDate,2022-09-22T21:34:51-04:00*%
%TF.ProjectId,vault35_alpha-rounded,7661756c-7433-4355-9f61-6c7068612d72,rev?*%
%TF.SameCoordinates,Original*%
%TF.FileFunction,Legend,Top*%
%TF.FilePolarity,Positive*%
%FSLAX46Y46*%
G04 Gerber Fmt 4.6, Leading zero omitted, Abs format (unit mm)*
G04 Created by KiCad (PCBNEW (6.0.5)) date 2022-09-22 21:34:51*
%MOMM*%
%LPD*%
G01*
G04 APERTURE LIST*
%ADD10C,0.300000*%
%ADD11C,0.120000*%
%ADD12C,1.397000*%
G04 APERTURE END LIST*
D10*
X205144642Y-111097321D02*
X204430357Y-111097321D01*
X204358928Y-111811607D01*
X204430357Y-111740178D01*
X204573214Y-111668750D01*
X204930357Y-111668750D01*
X205073214Y-111740178D01*
X205144642Y-111811607D01*
X205216071Y-111954464D01*
X205216071Y-112311607D01*
X205144642Y-112454464D01*
X205073214Y-112525892D01*
X204930357Y-112597321D01*
X204573214Y-112597321D01*
X204430357Y-112525892D01*
X204358928Y-112454464D01*
X109894642Y-111097321D02*
X109180357Y-111097321D01*
X109108928Y-111811607D01*
X109180357Y-111740178D01*
X109323214Y-111668750D01*
X109680357Y-111668750D01*
X109823214Y-111740178D01*
X109894642Y-111811607D01*
X109966071Y-111954464D01*
X109966071Y-112311607D01*
X109894642Y-112454464D01*
X109823214Y-112525892D01*
X109680357Y-112597321D01*
X109323214Y-112597321D01*
X109180357Y-112525892D01*
X109108928Y-112454464D01*
X175783928Y-111240178D02*
X175855357Y-111168750D01*
X175998214Y-111097321D01*
X176355357Y-111097321D01*
X176498214Y-111168750D01*
X176569642Y-111240178D01*
X176641071Y-111383035D01*
X176641071Y-111525892D01*
X176569642Y-111740178D01*
X175712500Y-112597321D01*
X176641071Y-112597321D01*
X137683928Y-111240178D02*
X137755357Y-111168750D01*
X137898214Y-111097321D01*
X138255357Y-111097321D01*
X138398214Y-111168750D01*
X138469642Y-111240178D01*
X138541071Y-111383035D01*
X138541071Y-111525892D01*
X138469642Y-111740178D01*
X137612500Y-112597321D01*
X138541071Y-112597321D01*
X157519642Y-127766071D02*
X156805357Y-127766071D01*
X156733928Y-128480357D01*
X156805357Y-128408928D01*
X156948214Y-128337500D01*
X157305357Y-128337500D01*
X157448214Y-128408928D01*
X157519642Y-128480357D01*
X157591071Y-128623214D01*
X157591071Y-128980357D01*
X157519642Y-129123214D01*
X157448214Y-129194642D01*
X157305357Y-129266071D01*
X156948214Y-129266071D01*
X156805357Y-129194642D01*
X156733928Y-129123214D01*
X90790932Y-127741094D02*
X90076647Y-127741094D01*
X90005218Y-128455380D01*
X90076647Y-128383951D01*
X90219504Y-128312523D01*
X90576647Y-128312523D01*
X90719504Y-128383951D01*
X90790932Y-128455380D01*
X90862361Y-128598237D01*
X90862361Y-128955380D01*
X90790932Y-129098237D01*
X90719504Y-129169665D01*
X90576647Y-129241094D01*
X90219504Y-129241094D01*
X90076647Y-129169665D01*
X90005218Y-129098237D01*
X224194642Y-127766071D02*
X223480357Y-127766071D01*
X223408928Y-128480357D01*
X223480357Y-128408928D01*
X223623214Y-128337500D01*
X223980357Y-128337500D01*
X224123214Y-128408928D01*
X224194642Y-128480357D01*
X224266071Y-128623214D01*
X224266071Y-128980357D01*
X224194642Y-129123214D01*
X224123214Y-129194642D01*
X223980357Y-129266071D01*
X223623214Y-129266071D01*
X223480357Y-129194642D01*
X223408928Y-129123214D01*
X224123214Y-125884821D02*
X224123214Y-126884821D01*
X223766071Y-125313392D02*
X223408928Y-126384821D01*
X224337500Y-126384821D01*
X202691964Y-125884821D02*
X202691964Y-126884821D01*
X202334821Y-125313392D02*
X201977678Y-126384821D01*
X202906250Y-126384821D01*
X174116964Y-128266071D02*
X174116964Y-129266071D01*
X173759821Y-127694642D02*
X173402678Y-128766071D01*
X174331250Y-128766071D01*
X90773214Y-125884821D02*
X90773214Y-126884821D01*
X90416071Y-125313392D02*
X90058928Y-126384821D01*
X90987500Y-126384821D01*
X112204464Y-125884821D02*
X112204464Y-126884821D01*
X111847321Y-125313392D02*
X111490178Y-126384821D01*
X112418750Y-126384821D01*
X140779464Y-128266071D02*
X140779464Y-129266071D01*
X140422321Y-127694642D02*
X140065178Y-128766071D01*
X140993750Y-128766071D01*
X220956250Y-130147321D02*
X221884821Y-130147321D01*
X221384821Y-130718750D01*
X221599107Y-130718750D01*
X221741964Y-130790178D01*
X221813392Y-130861607D01*
X221884821Y-131004464D01*
X221884821Y-131361607D01*
X221813392Y-131504464D01*
X221741964Y-131575892D01*
X221599107Y-131647321D01*
X221170535Y-131647321D01*
X221027678Y-131575892D01*
X220956250Y-131504464D01*
X199525000Y-125384821D02*
X200453571Y-125384821D01*
X199953571Y-125956250D01*
X200167857Y-125956250D01*
X200310714Y-126027678D01*
X200382142Y-126099107D01*
X200453571Y-126241964D01*
X200453571Y-126599107D01*
X200382142Y-126741964D01*
X200310714Y-126813392D01*
X200167857Y-126884821D01*
X199739285Y-126884821D01*
X199596428Y-126813392D01*
X199525000Y-126741964D01*
X92368750Y-130147321D02*
X93297321Y-130147321D01*
X92797321Y-130718750D01*
X93011607Y-130718750D01*
X93154464Y-130790178D01*
X93225892Y-130861607D01*
X93297321Y-131004464D01*
X93297321Y-131361607D01*
X93225892Y-131504464D01*
X93154464Y-131575892D01*
X93011607Y-131647321D01*
X92583035Y-131647321D01*
X92440178Y-131575892D01*
X92368750Y-131504464D01*
X113800000Y-125384821D02*
X114728571Y-125384821D01*
X114228571Y-125956250D01*
X114442857Y-125956250D01*
X114585714Y-126027678D01*
X114657142Y-126099107D01*
X114728571Y-126241964D01*
X114728571Y-126599107D01*
X114657142Y-126741964D01*
X114585714Y-126813392D01*
X114442857Y-126884821D01*
X114014285Y-126884821D01*
X113871428Y-126813392D01*
X113800000Y-126741964D01*
X173331250Y-125384821D02*
X174259821Y-125384821D01*
X173759821Y-125956250D01*
X173974107Y-125956250D01*
X174116964Y-126027678D01*
X174188392Y-126099107D01*
X174259821Y-126241964D01*
X174259821Y-126599107D01*
X174188392Y-126741964D01*
X174116964Y-126813392D01*
X173974107Y-126884821D01*
X173545535Y-126884821D01*
X173402678Y-126813392D01*
X173331250Y-126741964D01*
X139993750Y-125384821D02*
X140922321Y-125384821D01*
X140422321Y-125956250D01*
X140636607Y-125956250D01*
X140779464Y-126027678D01*
X140850892Y-126099107D01*
X140922321Y-126241964D01*
X140922321Y-126599107D01*
X140850892Y-126741964D01*
X140779464Y-126813392D01*
X140636607Y-126884821D01*
X140208035Y-126884821D01*
X140065178Y-126813392D01*
X139993750Y-126741964D01*
X221027678Y-127908928D02*
X221099107Y-127837500D01*
X221241964Y-127766071D01*
X221599107Y-127766071D01*
X221741964Y-127837500D01*
X221813392Y-127908928D01*
X221884821Y-128051785D01*
X221884821Y-128194642D01*
X221813392Y-128408928D01*
X220956250Y-129266071D01*
X221884821Y-129266071D01*
X197215178Y-127908928D02*
X197286607Y-127837500D01*
X197429464Y-127766071D01*
X197786607Y-127766071D01*
X197929464Y-127837500D01*
X198000892Y-127908928D01*
X198072321Y-128051785D01*
X198072321Y-128194642D01*
X198000892Y-128408928D01*
X197143750Y-129266071D01*
X198072321Y-129266071D01*
X92440178Y-127908928D02*
X92511607Y-127837500D01*
X92654464Y-127766071D01*
X93011607Y-127766071D01*
X93154464Y-127837500D01*
X93225892Y-127908928D01*
X93297321Y-128051785D01*
X93297321Y-128194642D01*
X93225892Y-128408928D01*
X92368750Y-129266071D01*
X93297321Y-129266071D01*
X116252678Y-127908928D02*
X116324107Y-127837500D01*
X116466964Y-127766071D01*
X116824107Y-127766071D01*
X116966964Y-127837500D01*
X117038392Y-127908928D01*
X117109821Y-128051785D01*
X117109821Y-128194642D01*
X117038392Y-128408928D01*
X116181250Y-129266071D01*
X117109821Y-129266071D01*
X156733928Y-125527678D02*
X156805357Y-125456250D01*
X156948214Y-125384821D01*
X157305357Y-125384821D01*
X157448214Y-125456250D01*
X157519642Y-125527678D01*
X157591071Y-125670535D01*
X157591071Y-125813392D01*
X157519642Y-126027678D01*
X156662500Y-126884821D01*
X157591071Y-126884821D01*
X93297321Y-126884821D02*
X92440178Y-126884821D01*
X92868750Y-126884821D02*
X92868750Y-125384821D01*
X92725892Y-125599107D01*
X92583035Y-125741964D01*
X92440178Y-125813392D01*
X117109821Y-126884821D02*
X116252678Y-126884821D01*
X116681250Y-126884821D02*
X116681250Y-125384821D01*
X116538392Y-125599107D01*
X116395535Y-125741964D01*
X116252678Y-125813392D01*
X198072321Y-126884821D02*
X197215178Y-126884821D01*
X197643750Y-126884821D02*
X197643750Y-125384821D01*
X197500892Y-125599107D01*
X197358035Y-125741964D01*
X197215178Y-125813392D01*
X221884821Y-126884821D02*
X221027678Y-126884821D01*
X221456250Y-126884821D02*
X221456250Y-125384821D01*
X221313392Y-125599107D01*
X221170535Y-125741964D01*
X221027678Y-125813392D01*
X143303571Y-126884821D02*
X142446428Y-126884821D01*
X142875000Y-126884821D02*
X142875000Y-125384821D01*
X142732142Y-125599107D01*
X142589285Y-125741964D01*
X142446428Y-125813392D01*
X171878571Y-126884821D02*
X171021428Y-126884821D01*
X171450000Y-126884821D02*
X171450000Y-125384821D01*
X171307142Y-125599107D01*
X171164285Y-125741964D01*
X171021428Y-125813392D01*
D11*
%TO.C,SW5*%
X110867501Y-75406250D02*
X110867501Y-72806250D01*
X110867501Y-78006250D02*
X109537501Y-78006250D01*
X108207501Y-75406250D02*
X108207501Y-72806250D01*
X110867501Y-75406250D02*
X108207501Y-75406250D01*
X110867501Y-76676250D02*
X110867501Y-78006250D01*
X110867501Y-72806250D02*
X108207501Y-72806250D01*
%TD*%
D12*
%TO.C,OL1*%
X160972500Y-94554586D03*
X158432500Y-94554586D03*
X155892500Y-94554586D03*
X153352500Y-94554586D03*
%TD*%
M02*
