M48
; DRILL file {KiCad (6.0.5)} date Thu Sep 22 21:34:53 2022
; FORMAT={-:-/ absolute / inch / decimal}
; #@! TF.CreationDate,2022-09-22T21:34:53-04:00
; #@! TF.GenerationSoftware,Kicad,Pcbnew,(6.0.5)
; #@! TF.FileFunction,Plated,1,2,PTH
FMAT,2
INCH
; #@! TA.AperFunction,Plated,PTH,ComponentDrill
T1C0.0079
; #@! TA.AperFunction,Plated,PTH,ViaDrill
T2C0.0157
; #@! TA.AperFunction,Plated,PTH,ComponentDrill
T3C0.0197
; #@! TA.AperFunction,Plated,PTH,ComponentDrill
T4C0.0236
; #@! TA.AperFunction,Plated,PTH,ComponentDrill
T5C0.0320
; #@! TA.AperFunction,Plated,PTH,ComponentDrill
T6C0.0394
; #@! TA.AperFunction,Plated,PTH,ComponentDrill
T7C0.0579
%
G90
G05
T1
X2.7512Y-3.5325
X2.7512Y-3.5787
X2.7512Y-3.625
X2.7512Y-3.6713
X2.7512Y-3.7175
X2.7975Y-3.5325
X2.7975Y-3.5787
X2.7975Y-3.625
X2.7975Y-3.6713
X2.7975Y-3.7175
X2.8438Y-3.5325
X2.8438Y-3.5787
X2.8438Y-3.625
X2.8438Y-3.6713
X2.8438Y-3.7175
X2.89Y-3.5325
X2.89Y-3.5787
X2.89Y-3.625
X2.89Y-3.6713
X2.89Y-3.7175
X2.9363Y-3.5325
X2.9363Y-3.5787
X2.9363Y-3.625
X2.9363Y-3.6713
X2.9363Y-3.7175
T2
X2.4794Y-3.5092
X2.5505Y-3.7276
X2.5559Y-3.9356
X2.6562Y-3.4688
X2.6875Y-3.7812
X2.7188Y-3.4375
X2.7561Y-3.3941
X2.8046Y-4.1907
X2.875Y-4.3125
X2.9062Y-3.2188
X2.9062Y-3.3941
X2.9699Y-3.7815
X3.0Y-3.4688
X3.0296Y-3.5329
X3.0897Y-3.4349
X3.0939Y-3.9184
X3.1117Y-2.4362
X3.1875Y-3.4688
X3.3691Y-2.6931
X3.4049Y-3.6399
X3.4062Y-3.5551
X3.4375Y-2.75
X3.4398Y-3.3999
X3.4608Y-2.6011
X3.4677Y-3.0311
X3.5069Y-2.5625
X3.5075Y-3.0311
X3.625Y-2.5625
X3.625Y-4.19
X3.6301Y-3.3299
X3.6668Y-2.5994
X3.7588Y-2.6863
X3.7589Y-2.8438
X3.7589Y-2.8831
X3.8438Y-2.75
X3.8452Y-3.0075
X3.8652Y-2.44
X3.9375Y-4.5
X4.5894Y-2.8966
X5.0625Y-2.8125
X5.0625Y-4.5625
X5.5625Y-4.4062
X5.6562Y-3.7831
X5.7313Y-3.7778
X5.7592Y-3.75
X5.8438Y-3.25
X6.554Y-3.5227
X6.6875Y-2.8438
X7.0938Y-4.4062
X7.5938Y-4.5938
X8.2828Y-4.2958
X8.5488Y-4.2676
T3
X6.4688Y-2.75
X6.4688Y-2.875
X6.4688Y-3.0
X6.4688Y-3.125
X6.4688Y-3.25
T5
X6.0375Y-3.7226
X6.1375Y-3.7226
X6.2375Y-3.7226
X6.3375Y-3.7226
T6
X4.3125Y-2.9187
X4.3125Y-3.0187
X4.9627Y-2.9191
X4.9627Y-3.0191
X5.0627Y-2.9191
X5.0627Y-3.0191
X5.1627Y-2.9191
X5.1627Y-3.0191
X6.0891Y-2.3179
X6.0891Y-2.8888
X6.0891Y-3.068
X6.0891Y-3.6389
X6.1875Y-2.8888
X6.1875Y-3.6389
X6.2859Y-2.3179
X6.2859Y-2.8888
X6.2859Y-3.068
X6.2859Y-3.6389
T7
X2.2875Y-2.4937
X2.2875Y-3.2437
X2.475Y-3.9937
X2.5375Y-2.3937
X2.5375Y-3.1437
X2.725Y-3.8937
X3.0375Y-2.4937
X3.0375Y-3.2437
X3.2875Y-2.3937
X3.2875Y-3.1437
X3.4125Y-3.9937
X3.4125Y-4.7437
X3.5063Y-4.7437
X3.6625Y-3.8937
X3.6625Y-4.6437
X3.7563Y-4.6437
X3.7875Y-2.4937
X3.7875Y-3.2437
X4.0375Y-2.3937
X4.0375Y-3.1437
X4.1625Y-3.9937
X4.2562Y-4.7437
X4.35Y-4.7437
X4.4125Y-3.8937
X4.4437Y-4.7437
X4.5062Y-4.6437
X4.5375Y-2.4937
X4.5375Y-3.2437
X4.6Y-4.6437
X4.6937Y-4.6437
X4.7875Y-2.3937
X4.7875Y-3.1437
X4.9125Y-3.9937
X5.1625Y-3.8937
X5.2875Y-2.4937
X5.2875Y-3.2437
X5.3812Y-4.7437
X5.475Y-4.7437
X5.5375Y-2.3937
X5.5375Y-3.1437
X5.6312Y-4.6437
X5.6625Y-3.9937
X5.725Y-4.6437
X5.9125Y-3.8937
X6.0312Y-4.7437
X6.0375Y-2.4937
X6.0375Y-3.2437
X6.2812Y-4.6437
X6.2875Y-2.3937
X6.2875Y-3.1437
X6.4125Y-3.9937
X6.6Y-4.7437
X6.6625Y-3.8937
X6.6937Y-4.7437
X6.7875Y-2.4937
X6.7875Y-3.2437
X6.85Y-4.6437
X6.9437Y-4.6437
X7.0375Y-2.3937
X7.0375Y-3.1437
X7.1625Y-3.9937
X7.4125Y-3.8937
X7.5375Y-2.4937
X7.5375Y-3.2437
X7.6312Y-4.7437
X7.725Y-4.7437
X7.7875Y-2.3937
X7.7875Y-3.1437
X7.8187Y-4.7437
X7.8812Y-4.6437
X7.9125Y-3.9937
X7.975Y-4.6437
X8.0687Y-4.6437
X8.1625Y-3.8937
X8.2875Y-2.4937
X8.2875Y-3.2437
X8.5375Y-2.3937
X8.5375Y-3.1437
X8.5687Y-4.7437
X8.6625Y-3.9937
X8.6625Y-4.7437
X8.8187Y-4.6437
X8.9125Y-3.8937
X8.9125Y-4.6437
X9.0375Y-2.4937
X9.0375Y-3.2437
X9.2875Y-2.3937
X9.2875Y-3.1437
X9.6Y-3.9937
X9.7875Y-2.4937
X9.7875Y-3.2437
X9.85Y-3.8937
X10.0375Y-2.3937
X10.0375Y-3.1437
T4
G00X3.3924Y-2.2381
M15
G01X3.3924Y-2.2618
M16
G05
G00X3.3924Y-2.3929
M15
G01X3.3924Y-2.4362
M16
G05
G00X3.7326Y-2.2381
M15
G01X3.7326Y-2.2618
M16
G05
G00X3.7326Y-2.3929
M15
G01X3.7326Y-2.4362
M16
G05
T0
M30
